<mxfile host="app.diagrams.net" agent="Mozilla/5.0 (Windows NT 10.0; Win64; x64) AppleWebKit/537.36 (KHTML, like Gecko) Chrome/139.0.0.0 Safari/537.36 Edg/139.0.0.0" version="28.1.0">
  <diagram name="Page-1" id="tmCscPD8yC45gVK3SYF4">
    <mxGraphModel dx="872" dy="495" grid="1" gridSize="10" guides="1" tooltips="1" connect="1" arrows="1" fold="1" page="1" pageScale="1" pageWidth="827" pageHeight="1169" math="0" shadow="0">
      <root>
        <mxCell id="0" />
        <mxCell id="1" parent="0" />
        <mxCell id="q3p12visvUuY5WVfa4CU-1" value="Create user" style="ellipse;whiteSpace=wrap;html=1;" vertex="1" parent="1">
          <mxGeometry x="310" y="150" width="140" height="70" as="geometry" />
        </mxCell>
        <mxCell id="q3p12visvUuY5WVfa4CU-2" value="Consult user list" style="ellipse;whiteSpace=wrap;html=1;" vertex="1" parent="1">
          <mxGeometry x="310" y="260" width="140" height="70" as="geometry" />
        </mxCell>
        <mxCell id="q3p12visvUuY5WVfa4CU-3" value="Consult user detail" style="ellipse;whiteSpace=wrap;html=1;" vertex="1" parent="1">
          <mxGeometry x="482" y="194" width="140" height="70" as="geometry" />
        </mxCell>
        <mxCell id="q3p12visvUuY5WVfa4CU-4" value="&amp;lt;extend&amp;gt;" style="endArrow=open;endSize=12;dashed=1;html=1;rounded=0;entryX=0.929;entryY=0.214;entryDx=0;entryDy=0;entryPerimeter=0;exitX=0;exitY=0.5;exitDx=0;exitDy=0;" edge="1" parent="1" source="q3p12visvUuY5WVfa4CU-3" target="q3p12visvUuY5WVfa4CU-2">
          <mxGeometry width="160" relative="1" as="geometry">
            <mxPoint x="330" y="260" as="sourcePoint" />
            <mxPoint x="490" y="260" as="targetPoint" />
          </mxGeometry>
        </mxCell>
        <mxCell id="q3p12visvUuY5WVfa4CU-5" value="Manager" style="shape=umlActor;verticalLabelPosition=bottom;verticalAlign=top;html=1;" vertex="1" parent="1">
          <mxGeometry x="120" y="200" width="30" height="60" as="geometry" />
        </mxCell>
        <mxCell id="q3p12visvUuY5WVfa4CU-7" style="edgeStyle=orthogonalEdgeStyle;rounded=0;orthogonalLoop=1;jettySize=auto;html=1;exitX=0.5;exitY=0;exitDx=0;exitDy=0;exitPerimeter=0;" edge="1" parent="1" source="q3p12visvUuY5WVfa4CU-6" target="q3p12visvUuY5WVfa4CU-1">
          <mxGeometry relative="1" as="geometry" />
        </mxCell>
        <mxCell id="q3p12visvUuY5WVfa4CU-8" style="edgeStyle=orthogonalEdgeStyle;rounded=0;orthogonalLoop=1;jettySize=auto;html=1;exitX=1;exitY=1;exitDx=0;exitDy=0;exitPerimeter=0;" edge="1" parent="1" source="q3p12visvUuY5WVfa4CU-6" target="q3p12visvUuY5WVfa4CU-2">
          <mxGeometry relative="1" as="geometry" />
        </mxCell>
        <mxCell id="q3p12visvUuY5WVfa4CU-6" value="Program manager" style="shape=umlActor;verticalLabelPosition=bottom;verticalAlign=top;html=1;" vertex="1" parent="1">
          <mxGeometry x="220" y="205" width="30" height="60" as="geometry" />
        </mxCell>
        <mxCell id="q3p12visvUuY5WVfa4CU-9" style="edgeStyle=orthogonalEdgeStyle;rounded=0;orthogonalLoop=1;jettySize=auto;html=1;exitX=0.5;exitY=0.5;exitDx=0;exitDy=0;exitPerimeter=0;entryX=0.5;entryY=0.5;entryDx=0;entryDy=0;entryPerimeter=0;" edge="1" parent="1" source="q3p12visvUuY5WVfa4CU-5" target="q3p12visvUuY5WVfa4CU-6">
          <mxGeometry relative="1" as="geometry" />
        </mxCell>
      </root>
    </mxGraphModel>
  </diagram>
</mxfile>
